<svg xmlns="http://www.w3.org/2000/svg" width="23.7" height="16" viewBox="0 0 23.7 16">
  <path id="Union_3" data-name="Union 3" d="M.186,8.616a1.117,1.117,0,0,1,0-1.233c6.551-9.845,16.778-9.845,23.328,0h0a1.126,1.126,0,0,1,0,1.233C20.241,13.538,16.046,16,11.852,16S3.463,13.538.186,8.616ZM5.924,8a5.831,5.831,0,0,0,5.926,5.714A5.831,5.831,0,0,0,17.775,8,5.831,5.831,0,0,0,11.85,2.285,5.831,5.831,0,0,0,5.924,8Zm2.37,0a3.558,3.558,0,0,1,7.111,0A3.558,3.558,0,0,1,8.295,8Zm2.37,0A1.186,1.186,0,1,0,11.85,6.857,1.166,1.166,0,0,0,10.665,8Z" transform="translate(0)" fill="#733faa"/>
</svg>
