<svg xmlns="http://www.w3.org/2000/svg" width="117.521" height="113.396" viewBox="0 0 117.521 113.396">
  <g id="Group_219" data-name="Group 219" transform="translate(0 0)" opacity="0.203">
    <path id="Path_2" data-name="Path 2" d="M743.276,404.835A38.008,38.008,0,0,1,705.891,373.5H688.3a55.374,55.374,0,0,0,109.953,0H780.661a38.052,38.052,0,0,1-37.385,31.336" transform="translate(-685.137 -308.854)" fill="#fff"/>
    <path id="Path_3" data-name="Path 3" d="M868.5,345.065a9.365,9.365,0,1,0,9.365-9.365,9.36,9.36,0,0,0-9.365,9.365" transform="translate(-819.724 -280.622)" fill="#fff"/>
    <path id="Path_6" data-name="Path 6" d="M703.947,135.943a9.365,9.365,0,1,1-9.365,9.365,9.361,9.361,0,0,1,9.365-9.365m-.329,36.93c16.63,0,27.817-11.087,27.817-27.337S720.247,118.2,703.617,118.2c-16.5,0-27.818,11.086-27.818,27.336s11.314,27.337,27.818,27.337" transform="translate(-675.8 -118.174)" fill="#fff"/>
    <path id="Path_10" data-name="Path 10" d="M948.446,154.625a9.365,9.365,0,1,1,9.365-9.365,9.361,9.361,0,0,1-9.365,9.365m-.329-36.525c-16.5,0-27.817,11.087-27.817,27.337s11.314,27.336,27.817,27.336c16.63,0,27.818-11.086,27.818-27.336S964.722,118.1,948.117,118.1" transform="translate(-858.413 -118.1)" fill="#fff"/>
  </g>
</svg>
