<svg xmlns="http://www.w3.org/2000/svg" width="119.735" height="37.36" viewBox="0 0 119.735 37.36">
  <g id="Group_61" data-name="Group 61" transform="translate(48 4944.654)">
    <g id="Layer_2" transform="translate(-48 -4944.654)">
      <g id="Group_2" data-name="Group 2" transform="translate(0 0)">
        <path id="Path_1" data-name="Path 1" d="M100.628,7.9V2.3H91.3V9.979l-.979-.734a9.182,9.182,0,0,0-12.228,1.612l-.483.64-.489-.64a9.323,9.323,0,0,0-14.185.044l-.489.64-.483-.64A8.654,8.654,0,0,0,54.83,7.608,8.787,8.787,0,0,0,48.079,10.5l-.54.615-.439-.7A6.194,6.194,0,0,0,41.7,7.6a8.37,8.37,0,0,0-3.708.834l-.289.138-.276-.157a6.778,6.778,0,0,0-3-.816H24.119l-.176-.3c-1.581-2.7-4.649-4.26-8.432-4.26-5.3,0-9.153,3.331-9.153,7.924a7.1,7.1,0,0,0,.916,3.595l.546.922H5.8c0,.025.006.056.006.082A12.673,12.673,0,0,0,6.9,20.35a8.125,8.125,0,0,0,2.842,3.068,10.741,10.741,0,0,0,4.429,1.531,15.2,15.2,0,0,0,1.876.119,10.311,10.311,0,0,0,6.173-1.832l.972-.715v2.265H46.592l.069.533a16.882,16.882,0,0,0,5,10.3,15.154,15.154,0,0,0,10.615,4.04c8.683,0,15.4-6.656,15.961-15.823l.069-1.154.916.709a9.361,9.361,0,0,0,5.559,1.619,9.573,9.573,0,0,0,5.546-1.568l.979-.728v2.077h18.276l-.878,2.34v-.063l-.809,2.1h9.555l8.087-21.256H100.628Z" transform="translate(-5.8 -2.3)" fill="#733faa"/>
        <g id="Group_1" data-name="Group 1" transform="translate(2.102 1.945)">
          <path id="Path_2" data-name="Path 2" d="M701.927,381.267a9.421,9.421,0,0,1-9.266-7.767H688.3a13.725,13.725,0,0,0,27.253,0h-4.36a9.432,9.432,0,0,1-9.266,7.767" transform="translate(-647.583 -352.157)" fill="#ff0037"/>
          <path id="Path_3" data-name="Path 3" d="M868.5,338.021a2.321,2.321,0,1,0,2.321-2.321,2.32,2.32,0,0,0-2.321,2.321" transform="translate(-816.478 -316.728)" fill="#ff0037"/>
          <path id="Path_4" data-name="Path 4" d="M49.978,52.316,46.333,51.4c-.54-.125-.966-.358-.96-.9.013-.659.678-.991,1.65-.972a2.023,2.023,0,0,1,2.1,1.38l5.4.088c-.376-3.124-2.848-5.741-7.453-5.816C43,45.107,39.821,47.31,39.758,51.03c-.05,3.062,1.87,4.467,4.548,5.05l3.589.8c.684.157,1.142.333,1.129.935-.013.772-.791,1.129-1.794,1.117a2.019,2.019,0,0,1-2.152-1.349L39.3,57.492c.54,3.582,3.507,5.753,8,5.822,3.946.063,7.24-1.97,7.3-5.741.056-2.748-1.493-4.461-4.624-5.257" transform="translate(-39.3 -44.43)" fill="#ff0037"/>
          <path id="Path_5" data-name="Path 5" d="M330.763,118.1a6.16,6.16,0,0,0-4.091,1.456,4.693,4.693,0,0,0-3.633-1.456,4.576,4.576,0,0,0-3.407,1.343v-1.06H314.2v12.987h5.433v-7.434a1.327,1.327,0,0,1,1.286-1.06c.772,0,1.085.627,1.085,1.4v7.1h5.433v-7.434a1.327,1.327,0,0,1,1.286-1.06c.772,0,1.085.627,1.085,1.4v7.1h5.433v-8.551c.013-2.886-1.732-4.718-4.479-4.718" transform="translate(-296.953 -112.78)" fill="#ff0037"/>
          <path id="Path_6" data-name="Path 6" d="M682.776,122.6a2.321,2.321,0,1,1-2.321,2.321,2.32,2.32,0,0,1,2.321-2.321m-.082,9.153a6.777,6.777,0,1,0-6.895-6.776,6.486,6.486,0,0,0,6.895,6.776" transform="translate(-635.867 -112.874)" fill="#ff0037"/>
          <path id="Path_7" data-name="Path 7" d="M1168.475,122.561a1.124,1.124,0,0,1,1.173,1.085h5.207a5.937,5.937,0,0,0-6.349-5.546,6.776,6.776,0,1,0,0,13.551,5.941,5.941,0,0,0,6.349-5.546h-5.207a1.124,1.124,0,0,1-1.173,1.085c-.859,0-1.43-.828-1.43-2.315s.577-2.315,1.43-2.315" transform="translate(-1091.283 -112.78)" fill="#ff0037"/>
          <path id="Path_8" data-name="Path 8" d="M1408.5,38.62a4.713,4.713,0,0,0-3.463,1.343V33.3H1399.6V51.889h5.433V44.455a1.378,1.378,0,0,1,1.374-1.06,1.24,1.24,0,0,1,1.261,1.4v7.1h5.433V43.338a4.343,4.343,0,0,0-4.6-4.718" transform="translate(-1314.258 -33.3)" fill="#ff0037"/>
          <path id="Path_9" data-name="Path 9" d="M1642.467,122.6l-1.889,6.155-1.97-6.155H1633l4.781,12.3-1.945,5.063h5.377l6.606-17.366Z" transform="translate(-1533.015 -116.997)" fill="#ff0037"/>
          <path id="Path_10" data-name="Path 10" d="M927.276,127.153a2.321,2.321,0,1,1,2.321-2.321,2.32,2.32,0,0,1-2.321,2.321m-.082-9.053a6.777,6.777,0,1,0,6.895,6.776,6.5,6.5,0,0,0-6.895-6.776" transform="translate(-865.028 -112.78)" fill="#ff0037"/>
        </g>
      </g>
    </g>
  </g>
</svg>
