<svg xmlns="http://www.w3.org/2000/svg" width="20.462" height="14.717" viewBox="0 0 20.462 14.717">
  <path id="Path_101201" data-name="Path 101201" d="M15.49,34.164H3.215a3.226,3.226,0,0,0-3.2,3.2v6.954a3.226,3.226,0,0,0,3.2,3.2H15.49c.121,0,.3-.06.484-.06l1.693.6,2.056.786a.7.7,0,0,0,.6-.121.617.617,0,0,0,.121-.544l-.786-2.116-.968-2.661V37.369a3.226,3.226,0,0,0-3.2-3.2Zm-3.023,5.624a1.073,1.073,0,0,0-1.088,1.028A1.084,1.084,0,0,0,12.466,41.9a1.073,1.073,0,0,0,1.028-1.088A1.06,1.06,0,0,0,12.466,39.788Zm-3.144,0a1.06,1.06,0,0,0-1.028,1.028A1.073,1.073,0,0,0,9.322,41.9a1.084,1.084,0,0,0,1.088-1.088A1.073,1.073,0,0,0,9.322,39.788Zm-3.084,0A1.073,1.073,0,0,0,5.15,40.816,1.084,1.084,0,0,0,6.238,41.9a1.034,1.034,0,0,0,1.028-1.088A1.019,1.019,0,0,0,6.238,39.788Z" transform="translate(-0.01 -34.164)" fill="#fff" fill-rule="evenodd"/>
</svg>
