<svg xmlns="http://www.w3.org/2000/svg" width="28.041" height="20.169" viewBox="0 0 28.041 20.169">
  <path id="Path_101201" data-name="Path 101201" d="M21.224,34.164H4.4A4.421,4.421,0,0,0,.01,38.556v9.53A4.421,4.421,0,0,0,4.4,52.478H21.224c.166,0,.414-.083.663-.083l2.32.829L27.024,54.3a.964.964,0,0,0,.829-.166.845.845,0,0,0,.166-.746l-1.077-2.9-1.326-3.646V38.556a4.421,4.421,0,0,0-4.392-4.392ZM17.08,41.871a1.47,1.47,0,0,0-1.492,1.409,1.485,1.485,0,0,0,1.492,1.492,1.47,1.47,0,0,0,1.409-1.492A1.452,1.452,0,0,0,17.08,41.871Zm-4.309,0a1.452,1.452,0,0,0-1.409,1.409,1.47,1.47,0,0,0,1.409,1.492,1.485,1.485,0,0,0,1.492-1.492A1.47,1.47,0,0,0,12.771,41.871Zm-4.226,0A1.47,1.47,0,0,0,7.054,43.28a1.485,1.485,0,0,0,1.492,1.492A1.417,1.417,0,0,0,9.954,43.28,1.4,1.4,0,0,0,8.545,41.871Z" transform="translate(-0.01 -34.164)" fill="#fff" fill-rule="evenodd"/>
</svg>
