<svg xmlns="http://www.w3.org/2000/svg" width="24.428" height="25" viewBox="0 0 24.428 25">
  <path id="noun-settings-3894736" d="M142,54.323a9.692,9.692,0,0,1,2.473,1.386l3.333-.954,2.778,4.811-2.433,2.353a9.814,9.814,0,0,1,0,2.984l2.433,2.353L147.8,72.067l-3.333-.954A9.7,9.7,0,0,1,142,72.5l-.853,3.412h-5.556l-.892-3.568a9.74,9.74,0,0,1-2.181-1.3l-3.585,1.026-2.778-4.811,2.738-2.647a9.868,9.868,0,0,1,0-2.394l-2.738-2.647,2.778-4.811,3.585,1.026a9.737,9.737,0,0,1,2.181-1.3l.892-3.568h5.556Zm-3.631,4.931a4.157,4.157,0,1,1-4.157,4.157A4.159,4.159,0,0,1,138.367,59.254Z" transform="translate(-126.153 -50.911)" fill="#733faa" fill-rule="evenodd"/>
</svg>
